<?xml version="1.0" standalone="no"?>
<!DOCTYPE svg PUBLIC "-//W3C//DTD SVG 20010904//EN"
 "http://www.w3.org/TR/2001/REC-SVG-20010904/DTD/svg10.dtd">
<svg version="1.0" xmlns="http://www.w3.org/2000/svg"
 width="1024.000000pt" height="1024.000000pt" viewBox="0 0 1024.000000 1024.000000"
 preserveAspectRatio="xMidYMid meet">
<metadata>
Created by potrace 1.16, written by Peter Selinger 2001-2019
</metadata>
<g transform="translate(0.000000,1024.000000) scale(0.100000,-0.100000)"
fill="#000000" stroke="none">
<path d="M4203 8426 c-23 -8 -78 -44 -122 -80 -63 -53 -88 -82 -120 -141 -86
-157 -113 -269 -113 -477 0 -73 -14 -108 -43 -108 -6 0 -24 -25 -40 -55 -25
-51 -27 -62 -21 -127 7 -79 31 -141 76 -198 16 -21 39 -66 50 -101 27 -85 38
-103 83 -133 67 -46 121 -64 232 -80 125 -19 147 -33 159 -104 8 -51 44 -95
96 -116 23 -9 42 -22 45 -29 2 -6 6 -67 9 -134 l7 -123 -43 0 c-24 0 -55 6
-70 14 -15 8 -42 17 -60 21 -18 4 -46 14 -62 22 -42 22 -248 70 -359 83 -121
15 -372 8 -477 -14 -138 -28 -330 -115 -443 -201 -120 -91 -305 -282 -342
-355 -10 -19 -37 -64 -60 -100 -23 -36 -48 -81 -55 -100 -7 -19 -21 -46 -30
-60 -54 -84 -109 -276 -130 -456 -30 -248 82 -684 268 -1049 71 -138 228 -321
302 -352 19 -9 55 -30 80 -48 25 -17 52 -34 61 -38 22 -7 151 -91 217 -139 51
-38 52 -40 52 -91 1 -29 4 -70 9 -93 l8 -41 -96 -54 c-141 -78 -247 -157 -326
-240 -78 -83 -180 -229 -208 -299 -10 -25 -28 -67 -39 -95 -73 -180 -88 -349
-43 -470 52 -138 179 -269 305 -315 30 -11 63 -25 72 -30 10 -5 59 -20 110
-31 76 -18 141 -23 353 -29 199 -6 273 -12 315 -25 82 -25 174 -57 185 -65 6
-4 51 -21 100 -38 50 -17 124 -45 165 -62 41 -18 95 -38 120 -45 25 -8 72 -23
105 -35 174 -63 209 -75 375 -120 281 -77 271 -75 455 -109 197 -38 336 -52
565 -58 272 -7 459 7 663 47 82 17 156 30 164 30 8 0 29 6 46 14 46 20 144 52
202 66 41 10 156 63 335 156 92 48 264 169 330 233 41 39 77 71 82 71 4 0 27
26 50 58 23 31 61 79 85 105 23 26 47 64 54 85 7 20 18 46 25 57 6 11 29 65
50 120 37 99 37 101 38 255 1 168 -11 251 -50 335 -12 28 -34 75 -47 105 -59
132 -183 272 -312 355 -95 61 -147 83 -280 119 -55 16 -118 33 -140 40 l-40
13 -7 124 c-7 137 -35 302 -68 394 -12 33 -27 80 -34 105 -18 63 -82 195 -121
249 -18 25 -41 62 -50 81 -42 82 -220 281 -344 382 -75 63 -166 128 -177 128
-3 0 -26 14 -51 30 -62 42 -137 79 -204 101 -31 10 -77 27 -102 38 l-45 19 -8
139 c-14 230 -10 306 21 418 37 133 41 156 59 324 28 256 21 328 -38 398 -18
21 -29 48 -32 80 -7 65 17 109 77 141 57 30 77 68 85 160 7 72 -1 115 -43 225
l-25 69 50 51 c40 42 55 66 71 121 33 107 29 135 -36 266 l-57 115 2 90 c3
133 -32 269 -98 382 -54 93 -104 145 -204 212 -36 24 -48 26 -135 25 -141 -1
-173 -13 -338 -130 l-59 -42 -74 25 c-68 23 -85 24 -214 21 -114 -3 -154 -9
-207 -27 l-67 -23 -60 60 c-34 34 -75 68 -93 78 -65 33 -242 51 -306 30z
m1491 -140 c54 -23 50 -33 -13 -28 -43 3 -64 0 -87 -14 -60 -37 -114 -91 -129
-130 -9 -21 -20 -48 -24 -59 -15 -35 -30 -99 -40 -170 -12 -84 -1 -146 41
-230 39 -79 78 -118 149 -150 l59 -26 49 18 c49 17 72 45 95 115 8 27 -11 31
-28 6 -24 -34 -28 -16 -6 25 11 20 20 48 20 61 0 14 5 28 10 31 16 10 12 101
-5 115 -8 7 -15 19 -15 26 0 8 -6 11 -15 8 -12 -5 -15 2 -15 30 0 32 3 36 25
36 34 0 42 26 18 58 -11 15 -24 39 -28 52 -4 14 -16 40 -27 58 l-20 32 29 0
c42 0 70 -24 104 -91 34 -68 46 -121 64 -289 8 -65 -9 -147 -35 -175 -10 -11
-20 -27 -22 -35 -2 -8 -25 -30 -53 -49 -39 -27 -63 -35 -108 -39 -60 -5 -90
-22 -38 -22 16 0 33 -5 36 -11 4 -5 18 -14 31 -19 20 -8 40 -2 102 28 66 33
77 42 80 66 2 16 -2 32 -8 36 -7 4 -9 13 -6 19 15 23 43 9 79 -38 28 -36 37
-58 37 -86 0 -40 -36 -124 -57 -132 -7 -3 -13 -11 -13 -17 0 -20 -71 -51 -129
-56 -34 -3 -56 -10 -59 -19 -4 -10 0 -12 14 -6 41 16 59 16 30 -1 -41 -23
-134 -44 -221 -48 -70 -4 -74 -3 -79 19 -6 22 -11 23 -88 23 -151 1 -221 14
-275 52 -26 19 -51 38 -54 42 -9 13 -39 -2 -40 -21 -1 -9 0 -28 1 -43 1 -15
-1 -32 -5 -38 -8 -13 -65 39 -65 59 0 11 -3 11 -17 -2 -10 -8 -49 -24 -88 -35
-38 -11 -84 -26 -102 -33 -18 -7 -36 -10 -40 -6 -13 13 49 57 103 73 68 20
134 52 134 65 0 7 -7 8 -17 4 -10 -4 -42 -11 -71 -15 -53 -9 -152 -52 -177
-76 -10 -11 -24 -11 -69 -2 -52 11 -57 11 -79 -10 -13 -13 -35 -21 -52 -21
-17 1 -73 -2 -125 -6 -80 -6 -109 -3 -185 15 -112 28 -172 54 -202 86 -40 43
-63 100 -63 153 0 46 3 52 29 66 58 29 73 65 72 168 -1 50 -3 101 -5 112 -12
70 27 218 83 310 31 50 100 135 109 133 4 -1 23 6 42 15 58 25 107 30 158 16
39 -10 64 -30 143 -109 118 -118 161 -196 163 -290 1 -33 4 -60 7 -60 13 0 47
-78 59 -134 11 -54 10 -59 -10 -81 -12 -13 -35 -29 -51 -35 -23 -10 -27 -15
-18 -26 24 -29 123 -3 137 37 12 32 -7 139 -31 179 -16 25 -22 54 -24 110 -2
41 -6 82 -10 90 -3 8 -7 18 -8 23 -2 4 -3 8 -5 10 -1 1 -3 9 -5 17 -2 8 -8 30
-14 49 -10 32 -8 36 25 68 l35 33 132 2 c189 2 182 4 231 -47 75 -78 97 -69
304 133 60 59 161 79 236 48z m3 -282 c33 -33 27 -77 -20 -138 -34 -45 -35
-45 -52 -26 -13 14 -18 34 -17 68 4 120 33 151 89 96z m-597 -790 c0 -2 -9 0
-20 6 -11 6 -20 13 -20 16 0 2 9 0 20 -6 11 -6 20 -13 20 -16z m300 -74 c-14
-4 -34 -8 -45 -8 l-20 -1 20 9 c11 5 31 8 45 8 l25 0 -25 -8z m518 -172 c12
-26 17 -47 11 -52 -5 -6 -9 -18 -9 -27 0 -10 -15 -33 -32 -52 l-33 -33 -150
-12 c-82 -7 -267 -11 -410 -10 l-260 2 190 11 190 11 -185 6 c-102 4 -230 7
-285 6 -55 -1 -166 3 -247 8 -156 10 -188 21 -188 68 0 32 37 85 63 91 27 7
664 21 1063 23 l262 2 20 -42z m-1135 -185 c-7 -2 -19 -2 -25 0 -7 3 -2 5 12
5 14 0 19 -2 13 -5z m246 3 c-9 -8 -170 -13 -175 -5 -3 5 36 9 87 9 51 0 90
-2 88 -4z m736 -67 c14 -14 -11 -282 -30 -319 -8 -16 -19 -30 -23 -30 -4 0
-32 -23 -62 -50 -109 -100 -319 -180 -468 -180 -201 0 -475 80 -511 149 -5 9
-9 114 -10 235 l-1 218 548 -7 c301 -4 551 -11 557 -16z m94 -469 c-4 -53 -10
-114 -13 -135 -8 -52 -18 -116 -21 -135 -1 -8 -6 -35 -10 -60 -7 -46 -55 -174
-83 -220 -8 -14 -50 -59 -93 -101 -167 -159 -412 -243 -708 -240 -206 2 -405
44 -582 124 -30 14 -64 28 -76 32 -25 7 -28 16 -13 31 15 15 -6 30 -61 48 -24
8 -69 23 -99 34 -30 11 -77 27 -105 35 -76 24 -127 44 -160 61 -16 9 -37 16
-45 16 -9 0 -43 7 -75 16 -151 40 -233 52 -370 53 -146 2 -220 -9 -322 -49
-29 -11 -53 -17 -53 -14 0 5 -81 -36 -90 -47 -3 -3 -32 -24 -65 -46 -33 -22
-85 -72 -115 -109 -30 -38 -58 -70 -62 -72 -5 -2 -8 -9 -8 -16 0 -7 -9 -22
-21 -34 -11 -13 -34 -48 -51 -80 l-30 -57 7 45 c18 118 120 410 143 410 4 0
16 19 27 43 11 23 34 65 52 92 47 75 135 150 125 108 -5 -21 39 -36 92 -30 75
8 274 110 397 203 55 42 102 81 105 85 21 34 679 -30 729 -71 11 -9 87 -31
120 -36 25 -4 -62 36 -91 42 -30 5 -75 30 -68 36 3 3 -14 6 -37 6 -23 1 -47 6
-53 13 -8 9 -8 10 0 6 6 -4 24 -3 40 2 16 5 40 4 53 -1 17 -6 27 -5 32 3 4 7
14 9 22 6 9 -3 25 3 38 14 12 10 31 19 41 19 16 0 15 -3 -8 -24 l-28 -23 24
-8 c24 -8 38 -17 70 -49 18 -18 19 -18 14 1 -5 16 0 21 22 26 35 6 54 -1 55
-22 0 -13 2 -12 8 3 7 19 8 19 14 -3 4 -16 11 -22 21 -18 8 3 16 1 18 -4 5
-14 73 -28 135 -29 28 0 55 -4 58 -10 3 -5 15 -10 26 -10 11 0 17 4 14 10 -3
6 1 7 10 4 9 -4 14 -12 12 -18 -5 -13 -33 -12 -97 3 -119 27 -173 31 -203 16
-35 -17 -63 -19 -72 -5 -3 6 -16 10 -28 9 -25 0 -27 1 73 -42 25 -11 82 -37
127 -58 45 -22 91 -39 102 -39 10 0 41 -9 68 -21 26 -11 66 -24 88 -29 37 -7
35 -8 -26 -9 -82 -1 -109 -22 -109 -82 0 -54 22 -103 72 -158 56 -62 94 -80
182 -88 114 -9 158 7 229 81 70 73 86 101 97 169 13 86 7 91 -122 85 -60 -3
-107 -3 -104 -1 3 3 56 16 118 30 62 13 122 27 133 29 11 3 31 8 45 11 14 2
32 7 40 10 8 4 20 5 26 4 6 0 28 6 48 14 26 11 36 21 32 31 -3 9 -1 12 4 9 6
-3 10 3 10 14 0 12 -6 21 -12 21 -9 0 -8 3 2 9 8 6 18 7 22 5 4 -3 8 -1 8 4 0
10 53 36 66 32 4 -1 11 5 16 14 5 9 13 14 19 11 5 -4 9 -1 9 5 0 6 24 22 54
36 30 13 61 35 69 47 9 12 34 42 56 67 23 25 41 50 42 55 1 6 4 -3 8 -20 4
-16 4 -73 0 -125z m-1722 78 c-3 -8 -6 -5 -6 6 -1 11 2 17 5 13 3 -3 4 -12 1
-19z m43 8 c0 -2 -7 -6 -15 -10 -8 -3 -15 -1 -15 4 0 6 7 10 15 10 8 0 15 -2
15 -4z m-343 -62 c-3 -3 -12 -4 -19 -1 -8 3 -5 6 6 6 11 1 17 -2 13 -5z m97
-3 c15 -6 16 -9 5 -13 -8 -3 -20 1 -27 8 -14 15 -7 17 22 5z m-27 -17 c-3 -3
-12 -4 -19 -1 -8 3 -5 6 6 6 11 1 17 -2 13 -5z m460 0 c-3 -3 -12 -4 -19 -1
-8 3 -5 6 6 6 11 1 17 -2 13 -5z m167 -52 c3 -5 30 -14 61 -21 30 -7 53 -16
50 -21 -3 -5 -23 -3 -44 5 -22 7 -41 12 -43 10 -2 -2 -14 5 -28 15 -14 11 -20
20 -13 20 6 0 14 -4 17 -8z m-54 -91 c0 -5 17 -16 38 -24 28 -12 31 -16 15
-16 -12 -1 -25 4 -28 10 -4 6 -13 8 -19 6 -18 -7 -40 9 -32 22 9 13 26 15 26
2z m373 -26 c43 -7 53 -35 12 -35 -14 0 -25 5 -25 10 0 6 -13 10 -29 10 -31 0
-47 13 -36 30 4 6 12 6 23 0 9 -5 34 -12 55 -15z m615 13 c-3 -7 -25 -17 -51
-23 -38 -8 -44 -13 -36 -27 7 -14 4 -16 -26 -15 -37 1 -42 6 -23 25 9 9 8 12
-4 12 -9 0 -18 -4 -20 -10 -2 -5 -9 -6 -16 -1 -17 10 120 43 143 35 8 -4 15
-1 15 5 0 6 5 11 11 11 6 0 9 -6 7 -12z m-793 -37 c11 -8 80 -25 175 -42 65
-12 112 -29 80 -28 -26 0 -232 46 -305 68 l-70 21 55 -5 c30 -4 59 -10 65 -14z
m291 -2 c6 -5 15 -5 19 -1 5 4 5 1 1 -5 -4 -7 -2 -13 3 -13 6 0 11 5 11 10 0
6 8 10 18 10 14 0 15 -2 2 -10 -13 -9 -13 -11 0 -20 10 -6 -3 -8 -40 -3 -49 5
-96 23 -61 23 11 0 11 3 2 14 -10 12 -8 13 11 9 13 -3 28 -10 34 -14z m111 -5
c-3 -3 -12 -4 -19 -1 -8 3 -5 6 6 6 11 1 17 -2 13 -5z m148 -1 c-22 -2 -47 -6
-55 -10 -8 -3 -24 -5 -35 -5 -15 1 -13 -1 7 -9 30 -11 46 -39 22 -39 -8 0 -17
6 -20 14 -5 13 -37 15 -69 4 -5 -1 -10 1 -10 7 0 5 10 9 23 9 18 -1 21 3 17
17 -6 18 0 19 77 17 46 -1 65 -3 43 -5z m200 -13 c3 -5 -1 -10 -10 -10 -9 0
-13 5 -10 10 3 6 8 10 10 10 2 0 7 -4 10 -10z m-228 -6 c-3 -3 -12 -4 -19 -1
-8 3 -5 6 6 6 11 1 17 -2 13 -5z m-240 -100 c-3 -3 -12 -4 -19 -1 -8 3 -5 6 6
6 11 1 17 -2 13 -5z m-1133 -354 c28 -9 51 -21 53 -27 6 -16 -49 -64 -66 -58
-8 3 -12 3 -8 -1 10 -10 -44 -65 -56 -57 -6 3 -7 1 -4 -5 7 -10 -11 -35 -60
-88 -12 -13 -20 -24 -17 -24 2 0 -13 -33 -35 -72 -22 -40 -45 -93 -51 -118 -7
-25 -16 -54 -21 -65 -16 -38 -29 -139 -29 -228 0 -74 6 -106 31 -181 17 -50
38 -107 47 -126 9 -19 15 -40 14 -47 -2 -11 -103 -194 -132 -240 -14 -21 -15
-21 -37 30 -12 29 -22 58 -23 65 0 7 -11 28 -24 45 -36 49 -85 177 -91 237 0
9 -5 21 -9 28 -22 35 -14 303 11 372 3 8 7 27 9 43 9 64 48 161 79 194 18 19
39 46 46 61 8 15 18 30 24 34 5 4 6 8 2 8 -4 0 -3 9 3 21 12 22 22 34 83 106
20 24 37 49 37 54 0 5 21 23 47 39 51 33 81 33 177 0z m1935 -231 c6 -81 11
-174 11 -206 l0 -60 58 -12 c155 -34 334 -110 416 -178 15 -13 42 -30 60 -37
40 -17 206 -165 271 -242 27 -32 55 -63 61 -69 20 -17 114 -147 114 -158 0 -5
22 -46 49 -91 56 -91 132 -311 152 -436 6 -41 16 -92 21 -113 17 -70 8 -302
-17 -432 -48 -243 -137 -440 -282 -619 -84 -103 -115 -136 -129 -136 -7 0 -52
-13 -99 -29 -47 -16 -85 -26 -85 -24 0 4 73 90 146 172 57 64 159 225 194 306
29 64 73 222 100 355 20 93 21 126 17 280 -6 173 -14 224 -58 375 -39 133 -35
128 -93 122 -28 -4 -109 -16 -181 -27 -299 -48 -834 -33 -1505 40 -52 6 -124
10 -160 10 -38 0 -71 5 -78 12 -9 9 -12 9 -12 0 0 -7 -11 -12 -25 -12 -14 0
-25 4 -25 9 0 5 -8 12 -17 15 -38 12 -206 27 -360 33 -136 5 -172 3 -224 -11
-53 -15 -73 -16 -147 -6 -47 6 -89 13 -93 16 -40 24 -107 -121 -139 -299 -15
-82 -17 -140 -14 -292 4 -241 10 -296 39 -408 13 -51 22 -93 21 -94 -1 -2 -25
3 -52 11 -27 7 -75 19 -106 25 l-58 12 -15 52 c-8 29 -22 104 -31 167 -20 138
-15 381 10 504 20 97 97 339 127 398 39 77 123 211 152 242 16 17 46 54 67 81
46 61 213 225 229 225 6 0 30 17 54 38 71 64 285 170 427 211 l125 36 -3 75
-4 75 94 -7 c141 -10 296 -9 337 1 20 5 63 15 96 21 33 7 92 23 130 36 39 12
88 28 110 33 45 12 195 98 195 112 0 5 6 9 13 9 6 0 30 16 52 34 50 43 49 45
64 -145z m-1599 20 c47 -18 92 -38 100 -45 8 -7 40 -19 70 -28 125 -34 170
-50 170 -56 0 -13 -23 -26 -85 -50 -33 -13 -64 -26 -70 -30 -5 -4 -21 -11 -35
-15 -45 -14 -239 -127 -283 -165 -23 -20 -56 -44 -73 -53 -17 -9 -76 -64 -132
-122 -112 -117 -101 -116 -120 -10 -11 59 -1 160 23 230 49 144 165 318 240
362 50 29 82 26 195 -18z m-829 -75 c4 -2 -10 -44 -31 -92 -21 -49 -48 -129
-59 -177 -42 -175 -24 -426 39 -543 13 -23 16 -40 10 -47 -10 -12 14 -65 63
-142 15 -24 27 -56 27 -72 0 -27 -42 -167 -54 -179 -15 -14 -92 45 -206 158
-121 121 -226 238 -219 244 2 1 25 15 51 31 37 23 56 46 89 105 49 89 65 167
55 263 -7 64 -10 69 -46 93 -58 38 -149 51 -230 32 -66 -16 -121 -34 -152 -49
-27 -13 -28 -12 -23 29 8 76 22 115 54 156 105 130 192 170 426 195 71 8 189
5 206 -5z m779 -1124 c0 -5 -4 -10 -10 -10 -5 0 -10 5 -10 10 0 6 5 10 10 10
6 0 10 -4 10 -10z m422 -89 c27 -6 119 -15 205 -21 87 -6 176 -13 198 -15 22
-2 96 -9 165 -15 69 -6 222 -21 340 -33 176 -18 276 -22 550 -22 308 0 347 2
480 24 201 34 191 35 211 -19 50 -129 54 -158 54 -360 0 -206 -6 -247 -62
-440 -40 -141 -73 -217 -136 -318 -51 -81 -106 -122 -208 -156 -119 -40 -199
-44 -282 -17 -37 13 -69 26 -72 31 -2 4 17 30 43 56 95 98 134 242 101 383
-18 78 -81 173 -159 236 -60 49 -84 62 -143 77 -144 36 -276 17 -381 -55 -110
-75 -174 -168 -195 -279 -12 -65 7 -213 34 -264 28 -54 29 -54 -153 -54 -136
0 -191 5 -292 24 -250 48 -329 71 -418 119 -164 90 -219 125 -267 171 -52 49
-83 72 -97 68 -5 -1 -7 1 -4 6 3 5 -5 19 -17 33 -12 13 -28 36 -36 51 -8 15
-19 25 -24 21 -6 -3 -7 -1 -4 4 4 6 -6 40 -23 75 -16 36 -32 89 -36 119 -6 46
-9 51 -17 31 -6 -12 -14 -22 -19 -22 -4 0 -8 -8 -8 -19 0 -17 -33 -35 -44 -24
-3 3 -3 25 1 49 6 49 -3 114 -17 114 -6 0 -10 -10 -10 -22 0 -12 -2 -19 -5
-16 -9 9 -11 129 -3 134 4 3 5 17 2 32 -10 52 19 205 61 321 5 12 57 13 323 8
174 -4 338 -11 364 -16z m-732 -532 c0 -5 -4 -8 -9 -5 -5 4 -12 0 -14 -6 -3
-8 -6 -6 -6 5 -1 9 6 17 14 17 8 0 15 -5 15 -11z m1963 -154 c55 -9 128 -42
160 -73 65 -62 137 -204 137 -272 0 -99 -114 -255 -227 -311 -41 -21 -60 -24
-140 -22 -101 2 -135 13 -209 66 -56 41 -80 70 -117 147 -39 82 -44 152 -17
242 19 64 29 80 82 131 45 42 74 61 113 72 72 21 136 33 160 29 11 -1 37 -6
58 -9z m1442 -15 c137 -34 191 -53 253 -87 65 -36 79 -49 36 -33 -39 15 -157
12 -190 -5 -50 -24 -74 -67 -74 -128 0 -29 3 -57 8 -61 4 -4 7 -11 7 -16 0
-18 47 -71 78 -87 25 -13 55 -17 134 -16 56 1 111 6 122 13 33 17 81 90 81
121 0 15 -11 41 -25 57 -34 41 -32 51 3 16 45 -45 90 -117 137 -217 83 -177
104 -344 62 -482 -34 -110 -65 -181 -104 -238 -18 -26 -33 -51 -33 -55 0 -16
-224 -244 -259 -262 -20 -11 -76 -48 -126 -83 -49 -35 -106 -69 -125 -77 -19
-7 -42 -19 -50 -25 -41 -33 -273 -123 -360 -140 -19 -4 -40 -11 -45 -15 -6 -5
-42 -14 -80 -21 -39 -6 -81 -16 -94 -21 -124 -46 -726 -76 -912 -45 -52 9
-128 19 -169 23 -80 7 -299 51 -415 84 -265 73 -337 95 -470 140 -82 28 -175
61 -205 74 -98 43 -158 66 -172 66 -7 0 -26 7 -41 15 -16 8 -58 24 -93 35 -36
11 -95 34 -132 51 -37 17 -78 35 -92 41 -14 5 -153 13 -310 17 -264 8 -293 10
-390 36 -113 29 -137 39 -218 93 -51 33 -108 106 -139 176 -26 58 -12 165 31
246 l19 35 13 -63 c14 -68 39 -111 76 -129 120 -60 194 -69 303 -38 105 31
142 52 220 126 96 91 143 187 160 321 7 57 -8 174 -27 211 -7 13 -5 17 10 17
35 0 211 -62 234 -82 13 -11 60 -37 106 -59 45 -22 82 -43 82 -48 0 -5 14 -14
30 -21 17 -7 30 -16 30 -21 0 -5 4 -9 9 -9 12 0 121 -64 190 -112 30 -21 59
-38 64 -38 6 0 53 -22 106 -49 124 -62 344 -151 375 -151 14 0 37 -5 52 -10
l27 -11 -64 -63 c-54 -54 -67 -74 -86 -132 -30 -95 -34 -130 -23 -198 19 -116
101 -237 209 -305 121 -77 406 -132 567 -109 64 10 116 28 196 70 62 33 154
115 180 161 62 113 60 107 61 202 0 55 -5 106 -13 126 -16 42 -58 89 -79 90
-39 1 30 17 104 23 44 4 107 13 140 21 33 8 98 21 145 30 187 35 703 189 741
221 22 19 39 17 39 -3 0 -10 8 -27 18 -39 26 -32 106 -85 133 -88 13 -2 32 -7
42 -11 27 -11 156 2 174 17 9 7 17 11 17 10 2 -7 56 21 56 28 0 4 11 12 25 18
39 18 75 107 75 184 0 81 -22 124 -83 165 -64 43 -118 57 -192 49 -196 -20
-195 -20 -195 -2 0 10 -10 50 -21 88 -18 59 -21 86 -16 162 3 50 10 111 16
136 5 25 13 62 16 83 5 31 9 37 23 32 9 -4 49 -16 87 -25z m-200 -616 c-4 -32
-16 -54 -40 -77 -38 -37 -169 -111 -145 -82 36 44 86 92 101 98 9 3 32 36 50
74 35 73 47 68 34 -13z"/>
<path d="M4226 8221 c-4 -6 -15 -11 -26 -11 -20 0 -32 -22 -24 -44 3 -8 1 -17
-5 -20 -5 -4 -13 -28 -17 -54 -3 -26 -12 -54 -19 -62 -31 -39 -55 -155 -55
-270 0 -71 3 -80 30 -115 17 -21 30 -41 30 -46 0 -4 3 -14 6 -23 5 -12 -1 -16
-22 -16 -35 0 -42 -5 -72 -48 -27 -38 -24 -47 24 -62 42 -14 134 0 200 30 23
11 54 22 68 26 14 3 29 10 32 15 3 5 15 9 27 9 12 0 29 5 37 10 13 9 13 11 0
19 -12 9 -12 12 1 28 34 39 68 121 80 191 15 90 1 205 -38 299 -22 55 -33 68
-87 104 -46 32 -73 43 -112 47 -32 2 -54 0 -58 -7z m91 -156 c-24 -23 -30 -18
-10 9 10 13 19 20 21 15 2 -5 -3 -16 -11 -24z m-87 -105 c33 -18 43 -48 29
-82 -15 -37 -50 -52 -84 -36 -45 20 -46 95 -3 116 30 14 35 14 58 2z"/>
<path d="M5352 8109 c-26 -10 -162 -145 -162 -160 0 -5 -9 -18 -19 -28 -26
-26 -36 -111 -21 -168 l13 -45 41 84 c37 75 140 222 181 256 18 15 20 72 3 71
-7 0 -23 -4 -36 -10z"/>
<path d="M5087 7684 c-8 -47 1 -92 25 -126 16 -24 27 -28 64 -28 31 0 46 5 51
15 6 17 -23 55 -42 55 -18 0 -51 41 -66 83 -16 47 -25 47 -32 1z"/>
<path d="M4110 7580 c-12 -8 -10 -10 8 -10 13 0 20 4 17 10 -7 12 -6 12 -25 0z"/>
<path d="M4990 7321 c0 -12 28 -22 35 -12 3 5 -2 12 -11 15 -21 8 -24 8 -24
-3z"/>
<path d="M5194 7315 c21 -16 86 -21 86 -6 0 8 -57 21 -90 21 -11 -1 -10 -4 4
-15z"/>
<path d="M4550 7302 c0 -10 33 -42 44 -42 9 0 -27 49 -36 50 -5 0 -8 -4 -8 -8z"/>
<path d="M5290 7250 c0 -6 8 -13 18 -16 9 -3 24 -9 33 -14 25 -13 43 10 21 26
-20 16 -72 18 -72 4z"/>
<path d="M5647 7883 c-11 -10 -8 -33 4 -33 6 0 9 6 6 14 -3 8 -1 17 6 20 7 3
8 5 1 5 -6 1 -14 -2 -17 -6z"/>
<path d="M5720 6830 c0 -5 6 -10 14 -10 8 0 18 5 21 10 3 6 -3 10 -14 10 -12
0 -21 -4 -21 -10z"/>
<path d="M4756 6445 c-3 -9 0 -15 9 -15 8 0 15 7 15 15 0 8 -4 15 -9 15 -5 0
-11 -7 -15 -15z"/>
<path d="M5567 6109 c7 -7 15 -10 18 -7 3 3 -2 9 -12 12 -14 6 -15 5 -6 -5z"/>
<path d="M5520 6090 c-8 -5 -12 -11 -9 -14 2 -3 11 -1 19 4 8 5 12 11 9 14 -2
3 -11 1 -19 -4z"/>
<path d="M4945 6050 c3 -5 11 -10 16 -10 6 0 7 5 4 10 -3 6 -11 10 -16 10 -6
0 -7 -4 -4 -10z"/>
<path d="M4290 4049 c-126 -34 -122 -32 -157 -86 -18 -29 -33 -56 -33 -60 0
-4 -8 -21 -17 -38 -11 -20 -17 -54 -17 -100 0 -62 4 -80 41 -158 l42 -87 78
-38 c69 -33 86 -37 153 -37 62 1 86 6 141 32 91 42 124 81 155 180 22 73 24
88 14 147 -13 81 -23 108 -57 152 -60 79 -227 124 -343 93z m195 -74 c11 -7
41 -33 67 -58 92 -90 91 -214 -3 -322 -40 -45 -73 -60 -152 -70 -75 -10 -136
13 -186 68 -48 53 -60 85 -62 165 -2 74 21 140 63 179 39 36 135 64 198 57 30
-3 64 -12 75 -19z"/>
<path d="M4228 3929 c-10 -5 -18 -19 -18 -31 0 -17 2 -18 15 -8 9 7 13 15 10
18 -2 3 3 11 13 18 20 16 5 18 -20 3z"/>
<path d="M3792 3700 c0 -14 2 -19 5 -12 2 6 2 18 0 25 -3 6 -5 1 -5 -13z"/>
<path d="M6640 2311 c-52 -17 -97 -41 -183 -99 -90 -61 -116 -204 -58 -326 40
-83 90 -129 201 -182 58 -28 203 -22 292 13 109 43 197 132 234 240 15 42 10
142 -7 175 -18 33 -88 109 -125 135 -85 60 -242 79 -354 44z"/>
</g>
</svg>
