<svg width="4319" height="809" viewBox="0 0 4319 809" fill="none" xmlns="http://www.w3.org/2000/svg">
<g clip-path="url(#clip0_2_4)">
<path d="M4319 -1H-1V809H4319V-1Z" fill="#1E1E2E"/>
<path d="M1711.1 326.231L1394 454.346L1456.84 609.882L1773.94 481.767L1711.1 326.231Z" fill="#89B4FA"/>
<path d="M2026.01 199L1708.91 327.115L1771.84 482.882L2088.94 354.766L2026.01 199Z" fill="#89B4FA"/>
<path d="M1758.24 306.957L1648.28 351.886L1711.85 507.469L1821.81 462.54L1758.24 306.957Z" fill="#F9E2AF"/>
<path d="M2324.47 501.688H2316.58L2315.05 507H2311.27L2318.3 484.92H2322.9L2329.94 507H2326.01L2324.47 501.688ZM2317.35 498.824H2323.69L2320.54 487.8L2317.35 498.824ZM2333.04 507V490.104H2336.12L2336.4 492.296C2337.1 491.432 2337.93 490.776 2338.89 490.328C2339.85 489.88 2340.84 489.656 2341.85 489.656C2343.43 489.656 2344.61 490.099 2345.39 490.984C2346.18 491.859 2346.57 493.091 2346.57 494.68V507H2342.99V496.456C2342.99 495.475 2342.93 494.685 2342.81 494.088C2342.69 493.491 2342.46 493.059 2342.11 492.792C2341.77 492.525 2341.25 492.392 2340.57 492.392C2340.03 492.392 2339.51 492.509 2339.02 492.744C2338.53 492.979 2338.08 493.288 2337.68 493.672C2337.27 494.045 2336.92 494.445 2336.62 494.872V507H2333.04ZM2384.32 502.856C2384.32 503.517 2384.42 504.003 2384.63 504.312C2384.83 504.611 2385.15 504.835 2385.6 504.984L2384.8 507.416C2383.97 507.32 2383.26 507.091 2382.66 506.728C2382.06 506.365 2381.61 505.816 2381.3 505.08C2380.68 505.859 2379.9 506.445 2378.95 506.84C2378 507.235 2376.98 507.432 2375.91 507.432C2374.2 507.432 2372.85 506.952 2371.84 505.992C2370.85 505.021 2370.35 503.752 2370.35 502.184C2370.35 500.403 2371.05 499.032 2372.43 498.072C2373.82 497.112 2375.81 496.632 2378.39 496.632H2380.8V495.528C2380.8 494.44 2380.47 493.656 2379.81 493.176C2379.16 492.696 2378.24 492.456 2377.04 492.456C2376.49 492.456 2375.82 492.531 2375.03 492.68C2374.24 492.819 2373.41 493.037 2372.55 493.336L2371.67 490.808C2372.72 490.413 2373.76 490.125 2374.77 489.944C2375.78 489.752 2376.72 489.656 2377.59 489.656C2379.85 489.656 2381.53 490.157 2382.64 491.16C2383.76 492.163 2384.32 493.549 2384.32 495.32V502.856ZM2376.99 504.792C2377.72 504.792 2378.43 504.6 2379.12 504.216C2379.82 503.832 2380.38 503.293 2380.8 502.6V498.872H2378.82C2377.13 498.872 2375.93 499.155 2375.2 499.72C2374.48 500.275 2374.11 501.043 2374.11 502.024C2374.11 502.92 2374.35 503.608 2374.83 504.088C2375.33 504.557 2376.05 504.792 2376.99 504.792ZM2398.74 504.488C2399.53 504.488 2400.27 504.355 2400.95 504.088C2401.63 503.811 2402.28 503.453 2402.9 503.016L2404.57 505.32C2403.83 505.949 2402.93 506.461 2401.88 506.856C2400.83 507.24 2399.75 507.432 2398.63 507.432C2396.9 507.432 2395.42 507.069 2394.2 506.344C2392.97 505.608 2392.03 504.579 2391.38 503.256C2390.73 501.933 2390.41 500.392 2390.41 498.632C2390.41 496.915 2390.73 495.384 2391.38 494.04C2392.04 492.685 2392.99 491.619 2394.23 490.84C2395.47 490.051 2396.96 489.656 2398.69 489.656C2399.85 489.656 2400.91 489.827 2401.88 490.168C2402.85 490.509 2403.74 491.016 2404.55 491.688L2402.9 493.944C2402.24 493.485 2401.56 493.139 2400.87 492.904C2400.19 492.659 2399.48 492.536 2398.76 492.536C2397.42 492.536 2396.33 493.027 2395.48 494.008C2394.64 494.989 2394.21 496.531 2394.21 498.632C2394.21 500.04 2394.41 501.176 2394.79 502.04C2395.18 502.893 2395.72 503.517 2396.41 503.912C2397.09 504.296 2397.87 504.488 2398.74 504.488ZM2417.93 504.488C2418.72 504.488 2419.45 504.355 2420.14 504.088C2420.82 503.811 2421.47 503.453 2422.09 503.016L2423.75 505.32C2423.02 505.949 2422.12 506.461 2421.07 506.856C2420.02 507.24 2418.94 507.432 2417.82 507.432C2416.09 507.432 2414.61 507.069 2413.39 506.344C2412.16 505.608 2411.22 504.579 2410.57 503.256C2409.92 501.933 2409.59 500.392 2409.59 498.632C2409.59 496.915 2409.92 495.384 2410.57 494.04C2411.23 492.685 2412.18 491.619 2413.42 490.84C2414.65 490.051 2416.14 489.656 2417.88 489.656C2419.03 489.656 2420.09 489.827 2421.07 490.168C2422.04 490.509 2422.93 491.016 2423.74 491.688L2422.09 493.944C2421.43 493.485 2420.75 493.139 2420.06 492.904C2419.37 492.659 2418.67 492.536 2417.95 492.536C2416.61 492.536 2415.52 493.027 2414.67 494.008C2413.82 494.989 2413.4 496.531 2413.4 498.632C2413.4 500.04 2413.59 501.176 2413.98 502.04C2414.37 502.893 2414.91 503.517 2415.59 503.912C2416.28 504.296 2417.05 504.488 2417.93 504.488ZM2431.95 499.704C2432.02 500.856 2432.27 501.8 2432.69 502.536C2433.1 503.261 2433.65 503.795 2434.32 504.136C2435 504.477 2435.75 504.648 2436.56 504.648C2437.39 504.648 2438.16 504.52 2438.86 504.264C2439.57 504.008 2440.27 503.645 2440.99 503.176L2442.54 505.32C2441.75 505.96 2440.83 506.472 2439.77 506.856C2438.72 507.24 2437.59 507.432 2436.38 507.432C2434.63 507.432 2433.15 507.059 2431.93 506.312C2430.73 505.565 2429.81 504.525 2429.18 503.192C2428.55 501.859 2428.24 500.317 2428.24 498.568C2428.24 496.872 2428.55 495.357 2429.17 494.024C2429.78 492.68 2430.67 491.619 2431.82 490.84C2432.97 490.051 2434.35 489.656 2435.95 489.656C2437.45 489.656 2438.74 489.997 2439.82 490.68C2440.91 491.363 2441.75 492.333 2442.33 493.592C2442.93 494.84 2443.23 496.344 2443.23 498.104C2443.23 498.392 2443.22 498.68 2443.2 498.968C2443.19 499.245 2443.17 499.491 2443.15 499.704H2431.95ZM2435.98 492.312C2434.86 492.312 2433.93 492.712 2433.2 493.512C2432.47 494.312 2432.05 495.56 2431.93 497.256H2439.76C2439.73 495.667 2439.38 494.445 2438.73 493.592C2438.09 492.739 2437.18 492.312 2435.98 492.312ZM2455.58 483.32V502.392C2455.58 503.171 2455.82 503.725 2456.29 504.056C2456.77 504.376 2457.39 504.536 2458.14 504.536C2458.64 504.536 2459.1 504.483 2459.54 504.376C2459.97 504.269 2460.4 504.136 2460.82 503.976L2461.73 506.472C2461.23 506.728 2460.61 506.952 2459.87 507.144C2459.15 507.336 2458.32 507.432 2457.38 507.432C2455.68 507.432 2454.36 506.957 2453.41 506.008C2452.47 505.048 2452 503.736 2452 502.072V485.96H2446.9V483.32H2455.58ZM2470.32 499.704C2470.4 500.856 2470.64 501.8 2471.06 502.536C2471.48 503.261 2472.02 503.795 2472.69 504.136C2473.37 504.477 2474.12 504.648 2474.93 504.648C2475.76 504.648 2476.53 504.52 2477.24 504.264C2477.94 504.008 2478.65 503.645 2479.36 503.176L2480.92 505.32C2480.13 505.96 2479.2 506.472 2478.15 506.856C2477.09 507.24 2475.96 507.432 2474.76 507.432C2473.01 507.432 2471.52 507.059 2470.31 506.312C2469.1 505.565 2468.19 504.525 2467.56 503.192C2466.93 501.859 2466.61 500.317 2466.61 498.568C2466.61 496.872 2466.92 495.357 2467.54 494.024C2468.16 492.68 2469.04 491.619 2470.2 490.84C2471.35 490.051 2472.72 489.656 2474.32 489.656C2475.83 489.656 2477.12 489.997 2478.2 490.68C2479.28 491.363 2480.12 492.333 2480.71 493.592C2481.31 494.84 2481.6 496.344 2481.6 498.104C2481.6 498.392 2481.59 498.68 2481.57 498.968C2481.56 499.245 2481.55 499.491 2481.52 499.704H2470.32ZM2474.36 492.312C2473.24 492.312 2472.31 492.712 2471.57 493.512C2470.85 494.312 2470.43 495.56 2470.31 497.256H2478.13C2478.1 495.667 2477.76 494.445 2477.11 493.592C2476.47 492.739 2475.55 492.312 2474.36 492.312ZM2486.7 507V504.44H2489.18V492.648H2486.7V490.104H2491.91L2492.57 494.024C2493.2 492.605 2493.98 491.528 2494.9 490.792C2495.84 490.045 2497.05 489.672 2498.52 489.672C2499.02 489.672 2499.47 489.715 2499.86 489.8C2500.27 489.875 2500.67 489.976 2501.06 490.104L2499.99 493.176C2499.65 493.08 2499.33 493.011 2499.03 492.968C2498.73 492.915 2498.4 492.888 2498.04 492.888C2496.81 492.888 2495.75 493.347 2494.86 494.264C2493.97 495.181 2493.27 496.483 2492.76 498.168V504.44H2496.17V507H2486.7ZM2497.9 496.328V492.168L2498.34 490.104H2501.06L2500.46 496.328H2497.9ZM2518.64 502.856C2518.64 503.517 2518.74 504.003 2518.94 504.312C2519.14 504.611 2519.47 504.835 2519.92 504.984L2519.12 507.416C2518.28 507.32 2517.57 507.091 2516.97 506.728C2516.37 506.365 2515.92 505.816 2515.61 505.08C2514.99 505.859 2514.21 506.445 2513.26 506.84C2512.31 507.235 2511.3 507.432 2510.22 507.432C2508.51 507.432 2507.16 506.952 2506.16 505.992C2505.16 505.021 2504.67 503.752 2504.67 502.184C2504.67 500.403 2505.36 499.032 2506.75 498.072C2508.13 497.112 2510.12 496.632 2512.7 496.632H2515.12V495.528C2515.12 494.44 2514.78 493.656 2514.12 493.176C2513.47 492.696 2512.55 492.456 2511.36 492.456C2510.8 492.456 2510.13 492.531 2509.34 492.68C2508.55 492.819 2507.72 493.037 2506.86 493.336L2505.98 490.808C2507.04 490.413 2508.07 490.125 2509.08 489.944C2510.1 489.752 2511.04 489.656 2511.9 489.656C2514.16 489.656 2515.85 490.157 2516.96 491.16C2518.08 492.163 2518.64 493.549 2518.64 495.32V502.856ZM2511.31 504.792C2512.03 504.792 2512.74 504.6 2513.44 504.216C2514.13 503.832 2514.69 503.293 2515.12 502.6V498.872H2513.13C2511.45 498.872 2510.24 499.155 2509.52 499.72C2508.79 500.275 2508.43 501.043 2508.43 502.024C2508.43 502.92 2508.67 503.608 2509.15 504.088C2509.64 504.557 2510.36 504.792 2511.31 504.792ZM2539.02 506.104C2538.4 506.499 2537.66 506.819 2536.8 507.064C2535.93 507.309 2535.03 507.432 2534.09 507.432C2532.13 507.432 2530.64 506.925 2529.61 505.912C2528.6 504.888 2528.09 503.544 2528.09 501.88V492.712H2524.33V490.104H2528.09V486.328L2531.68 485.896V490.104H2537.37L2536.97 492.712H2531.68V501.848C2531.68 502.755 2531.9 503.432 2532.35 503.88C2532.81 504.317 2533.56 504.536 2534.59 504.536C2535.21 504.536 2535.78 504.461 2536.3 504.312C2536.83 504.163 2537.3 503.971 2537.73 503.736L2539.02 506.104ZM2547.07 499.704C2547.15 500.856 2547.39 501.8 2547.81 502.536C2548.23 503.261 2548.77 503.795 2549.44 504.136C2550.12 504.477 2550.87 504.648 2551.68 504.648C2552.51 504.648 2553.28 504.52 2553.99 504.264C2554.69 504.008 2555.4 503.645 2556.11 503.176L2557.67 505.32C2556.88 505.96 2555.95 506.472 2554.9 506.856C2553.84 507.24 2552.71 507.432 2551.51 507.432C2549.76 507.432 2548.27 507.059 2547.06 506.312C2545.85 505.565 2544.94 504.525 2544.31 503.192C2543.68 501.859 2543.36 500.317 2543.36 498.568C2543.36 496.872 2543.67 495.357 2544.29 494.024C2544.91 492.68 2545.79 491.619 2546.95 490.84C2548.1 490.051 2549.47 489.656 2551.07 489.656C2552.58 489.656 2553.87 489.997 2554.95 490.68C2556.03 491.363 2556.87 492.333 2557.46 493.592C2558.06 494.84 2558.35 496.344 2558.35 498.104C2558.35 498.392 2558.34 498.68 2558.32 498.968C2558.31 499.245 2558.3 499.491 2558.27 499.704H2547.07ZM2551.11 492.312C2549.99 492.312 2549.06 492.712 2548.32 493.512C2547.6 494.312 2547.18 495.56 2547.06 497.256H2554.88C2554.85 495.667 2554.51 494.445 2553.86 493.592C2553.22 492.739 2552.3 492.312 2551.11 492.312ZM2573.21 482.92L2576.79 483.32V507H2573.64L2573.38 504.92C2572.81 505.72 2572.12 506.339 2571.32 506.776C2570.52 507.213 2569.62 507.432 2568.63 507.432C2567.18 507.432 2565.98 507.064 2565.05 506.328C2564.11 505.581 2563.41 504.541 2562.95 503.208C2562.5 501.864 2562.28 500.312 2562.28 498.552C2562.28 496.835 2562.54 495.309 2563.08 493.976C2563.61 492.632 2564.37 491.576 2565.37 490.808C2566.36 490.04 2567.55 489.656 2568.95 489.656C2569.83 489.656 2570.63 489.816 2571.33 490.136C2572.04 490.445 2572.66 490.899 2573.21 491.496V482.92ZM2569.89 492.408C2568.69 492.408 2567.75 492.909 2567.08 493.912C2566.41 494.904 2566.07 496.451 2566.07 498.552C2566.07 499.992 2566.21 501.165 2566.49 502.072C2566.76 502.968 2567.16 503.629 2567.69 504.056C2568.21 504.472 2568.84 504.68 2569.57 504.68C2570.38 504.68 2571.09 504.445 2571.69 503.976C2572.28 503.507 2572.79 502.941 2573.21 502.28V494.28C2572.79 493.683 2572.3 493.224 2571.75 492.904C2571.19 492.573 2570.58 492.408 2569.89 492.408ZM2589.23 501.24C2590.07 501.24 2590.77 501.523 2591.32 502.088C2591.88 502.643 2592.15 503.325 2592.15 504.136C2592.15 504.616 2592.08 505.101 2591.93 505.592C2591.79 506.072 2591.56 506.664 2591.24 507.368L2588.76 513.032H2585.98L2587.55 506.536C2587.16 506.269 2586.86 505.928 2586.65 505.512C2586.44 505.085 2586.33 504.621 2586.33 504.12C2586.33 503.32 2586.61 502.643 2587.16 502.088C2587.72 501.523 2588.4 501.24 2589.23 501.24ZM2623.82 499.704C2623.9 500.856 2624.14 501.8 2624.56 502.536C2624.98 503.261 2625.52 503.795 2626.19 504.136C2626.87 504.477 2627.62 504.648 2628.43 504.648C2629.26 504.648 2630.03 504.52 2630.74 504.264C2631.44 504.008 2632.15 503.645 2632.86 503.176L2634.42 505.32C2633.63 505.96 2632.7 506.472 2631.65 506.856C2630.59 507.24 2629.46 507.432 2628.26 507.432C2626.51 507.432 2625.02 507.059 2623.81 506.312C2622.6 505.565 2621.69 504.525 2621.06 503.192C2620.43 501.859 2620.11 500.317 2620.11 498.568C2620.11 496.872 2620.42 495.357 2621.04 494.024C2621.66 492.68 2622.54 491.619 2623.7 490.84C2624.85 490.051 2626.22 489.656 2627.82 489.656C2629.33 489.656 2630.62 489.997 2631.7 490.68C2632.78 491.363 2633.62 492.333 2634.21 493.592C2634.81 494.84 2635.1 496.344 2635.1 498.104C2635.1 498.392 2635.09 498.68 2635.07 498.968C2635.06 499.245 2635.05 499.491 2635.02 499.704H2623.82ZM2627.86 492.312C2626.74 492.312 2625.81 492.712 2625.07 493.512C2624.35 494.312 2623.93 495.56 2623.81 497.256H2631.63C2631.6 495.667 2631.26 494.445 2630.61 493.592C2629.97 492.739 2629.05 492.312 2627.86 492.312ZM2642.53 507H2638.56L2644.63 498.088L2639.24 490.104H2643.36L2646.82 496.056L2650.28 490.104H2654.21L2648.93 497.944L2655.01 507H2650.8L2646.66 500.104L2642.53 507ZM2673.34 506.104C2672.72 506.499 2671.98 506.819 2671.11 507.064C2670.25 507.309 2669.35 507.432 2668.41 507.432C2666.44 507.432 2664.95 506.925 2663.93 505.912C2662.91 504.888 2662.41 503.544 2662.41 501.88V492.712H2658.65V490.104H2662.41V486.328L2665.99 485.896V490.104H2671.69L2671.29 492.712H2665.99V501.848C2665.99 502.755 2666.22 503.432 2666.66 503.88C2667.12 504.317 2667.87 504.536 2668.9 504.536C2669.52 504.536 2670.09 504.461 2670.62 504.312C2671.14 504.163 2671.61 503.971 2672.04 503.736L2673.34 506.104ZM2681.39 499.704C2681.46 500.856 2681.71 501.8 2682.12 502.536C2682.54 503.261 2683.08 503.795 2683.75 504.136C2684.44 504.477 2685.18 504.648 2685.99 504.648C2686.83 504.648 2687.59 504.52 2688.3 504.264C2689 504.008 2689.71 503.645 2690.43 503.176L2691.98 505.32C2691.19 505.96 2690.27 506.472 2689.21 506.856C2688.15 507.24 2687.02 507.432 2685.82 507.432C2684.07 507.432 2682.59 507.059 2681.37 506.312C2680.17 505.565 2679.25 504.525 2678.62 503.192C2677.99 501.859 2677.67 500.317 2677.67 498.568C2677.67 496.872 2677.98 495.357 2678.6 494.024C2679.22 492.68 2680.11 491.619 2681.26 490.84C2682.41 490.051 2683.79 489.656 2685.39 489.656C2686.89 489.656 2688.18 489.997 2689.26 490.68C2690.35 491.363 2691.18 492.333 2691.77 493.592C2692.37 494.84 2692.67 496.344 2692.67 498.104C2692.67 498.392 2692.66 498.68 2692.63 498.968C2692.62 499.245 2692.61 499.491 2692.59 499.704H2681.39ZM2685.42 492.312C2684.3 492.312 2683.37 492.712 2682.63 493.512C2681.91 494.312 2681.49 495.56 2681.37 497.256H2689.19C2689.16 495.667 2688.82 494.445 2688.17 493.592C2687.53 492.739 2686.61 492.312 2685.42 492.312ZM2697.6 507V490.104H2700.69L2700.96 492.296C2701.66 491.432 2702.49 490.776 2703.45 490.328C2704.41 489.88 2705.4 489.656 2706.41 489.656C2707.99 489.656 2709.17 490.099 2709.95 490.984C2710.74 491.859 2711.13 493.091 2711.13 494.68V507H2707.55V496.456C2707.55 495.475 2707.49 494.685 2707.37 494.088C2707.26 493.491 2707.02 493.059 2706.67 492.792C2706.33 492.525 2705.82 492.392 2705.13 492.392C2704.59 492.392 2704.07 492.509 2703.58 492.744C2703.09 492.979 2702.64 493.288 2702.24 493.672C2701.83 494.045 2701.48 494.445 2701.18 494.872V507H2697.6ZM2722.93 504.68C2724.05 504.68 2724.94 504.483 2725.6 504.088C2726.26 503.683 2726.59 503.128 2726.59 502.424C2726.59 501.965 2726.5 501.576 2726.31 501.256C2726.11 500.925 2725.73 500.627 2725.15 500.36C2724.58 500.083 2723.7 499.795 2722.53 499.496C2721.42 499.208 2720.44 498.867 2719.6 498.472C2718.77 498.077 2718.12 497.565 2717.67 496.936C2717.21 496.307 2716.98 495.496 2716.98 494.504C2716.98 493.533 2717.25 492.685 2717.79 491.96C2718.34 491.235 2719.12 490.669 2720.13 490.264C2721.15 489.859 2722.35 489.656 2723.73 489.656C2725.15 489.656 2726.39 489.843 2727.44 490.216C2728.5 490.589 2729.4 491.053 2730.15 491.608L2728.64 493.864C2727.98 493.427 2727.25 493.069 2726.47 492.792C2725.69 492.515 2724.81 492.376 2723.83 492.376C2722.68 492.376 2721.86 492.547 2721.36 492.888C2720.87 493.229 2720.63 493.683 2720.63 494.248C2720.63 494.664 2720.75 495.016 2720.99 495.304C2721.25 495.581 2721.69 495.843 2722.31 496.088C2722.92 496.323 2723.8 496.6 2724.93 496.92C2726.03 497.219 2726.98 497.571 2727.79 497.976C2728.61 498.381 2729.25 498.92 2729.7 499.592C2730.16 500.253 2730.39 501.117 2730.39 502.184C2730.39 503.4 2730.03 504.397 2729.33 505.176C2728.64 505.944 2727.72 506.515 2726.58 506.888C2725.45 507.251 2724.23 507.432 2722.93 507.432C2721.36 507.432 2720.01 507.208 2718.87 506.76C2717.72 506.301 2716.76 505.731 2715.99 505.048L2717.89 502.872C2718.55 503.405 2719.31 503.843 2720.16 504.184C2721.01 504.515 2721.94 504.68 2722.93 504.68ZM2745.21 490.104V504.376H2749.8V507H2736.57V504.376H2741.62V492.728H2736.73V490.104H2745.21ZM2742.71 481.832C2743.41 481.832 2743.98 482.045 2744.41 482.472C2744.84 482.899 2745.06 483.432 2745.06 484.072C2745.06 484.712 2744.84 485.251 2744.41 485.688C2743.98 486.125 2743.41 486.344 2742.71 486.344C2742.03 486.344 2741.47 486.125 2741.03 485.688C2740.59 485.251 2740.37 484.712 2740.37 484.072C2740.37 483.432 2740.59 482.899 2741.03 482.472C2741.47 482.045 2742.03 481.832 2742.71 481.832ZM2758.74 492.12C2759.33 491.352 2760.01 490.749 2760.79 490.312C2761.58 489.875 2762.45 489.656 2763.38 489.656C2764.87 489.656 2766.07 490.024 2766.98 490.76C2767.91 491.485 2768.59 492.515 2769.02 493.848C2769.45 495.171 2769.67 496.728 2769.67 498.52C2769.67 500.237 2769.42 501.768 2768.9 503.112C2768.39 504.456 2767.64 505.512 2766.63 506.28C2765.64 507.048 2764.41 507.432 2762.95 507.432C2761.06 507.432 2759.58 506.733 2758.5 505.336L2758.31 507H2755.16V483.32L2758.74 482.92V492.12ZM2762.06 504.696C2763.27 504.696 2764.21 504.2 2764.87 503.208C2765.54 502.216 2765.88 500.659 2765.88 498.536C2765.88 497.096 2765.75 495.928 2765.48 495.032C2765.21 494.125 2764.82 493.464 2764.3 493.048C2763.78 492.632 2763.16 492.424 2762.41 492.424C2761.61 492.424 2760.9 492.664 2760.3 493.144C2759.69 493.624 2759.17 494.189 2758.74 494.84V502.744C2759.14 503.352 2759.61 503.832 2760.17 504.184C2760.73 504.525 2761.36 504.696 2762.06 504.696ZM2781.77 483.32V502.392C2781.77 503.171 2782.01 503.725 2782.48 504.056C2782.96 504.376 2783.57 504.536 2784.33 504.536C2784.82 504.536 2785.29 504.483 2785.72 504.376C2786.16 504.269 2786.59 504.136 2787 503.976L2787.92 506.472C2787.41 506.728 2786.8 506.952 2786.06 507.144C2785.33 507.336 2784.5 507.432 2783.56 507.432C2781.87 507.432 2780.55 506.957 2779.6 506.008C2778.66 505.048 2778.19 503.736 2778.19 502.072V485.96H2773.08V483.32H2781.77ZM2796.51 499.704C2796.59 500.856 2796.83 501.8 2797.25 502.536C2797.66 503.261 2798.21 503.795 2798.88 504.136C2799.56 504.477 2800.31 504.648 2801.12 504.648C2801.95 504.648 2802.72 504.52 2803.42 504.264C2804.13 504.008 2804.84 503.645 2805.55 503.176L2807.1 505.32C2806.31 505.96 2805.39 506.472 2804.34 506.856C2803.28 507.24 2802.15 507.432 2800.94 507.432C2799.19 507.432 2797.71 507.059 2796.5 506.312C2795.29 505.565 2794.37 504.525 2793.74 503.192C2793.11 501.859 2792.8 500.317 2792.8 498.568C2792.8 496.872 2793.11 495.357 2793.73 494.024C2794.35 492.68 2795.23 491.619 2796.38 490.84C2797.54 490.051 2798.91 489.656 2800.51 489.656C2802.02 489.656 2803.31 489.997 2804.38 490.68C2805.47 491.363 2806.31 492.333 2806.9 493.592C2807.49 494.84 2807.79 496.344 2807.79 498.104C2807.79 498.392 2807.78 498.68 2807.76 498.968C2807.75 499.245 2807.73 499.491 2807.71 499.704H2796.51ZM2800.54 492.312C2799.42 492.312 2798.5 492.712 2797.76 493.512C2797.03 494.312 2796.61 495.56 2796.5 497.256H2804.32C2804.29 495.667 2803.95 494.445 2803.3 493.592C2802.66 492.739 2801.74 492.312 2800.54 492.312ZM2839.33 483.32V502.392C2839.33 503.171 2839.57 503.725 2840.04 504.056C2840.52 504.376 2841.14 504.536 2841.89 504.536C2842.39 504.536 2842.85 504.483 2843.29 504.376C2843.72 504.269 2844.15 504.136 2844.57 503.976L2845.48 506.472C2844.98 506.728 2844.36 506.952 2843.62 507.144C2842.9 507.336 2842.07 507.432 2841.13 507.432C2839.43 507.432 2838.11 506.957 2837.16 506.008C2836.22 505.048 2835.75 503.736 2835.75 502.072V485.96H2830.65V483.32H2839.33ZM2860.33 490.104V504.376H2864.92V507H2851.69V504.376H2856.75V492.728H2851.85V490.104H2860.33ZM2857.83 481.832C2858.54 481.832 2859.1 482.045 2859.53 482.472C2859.97 482.899 2860.19 483.432 2860.19 484.072C2860.19 484.712 2859.97 485.251 2859.53 485.688C2859.1 486.125 2858.54 486.344 2857.83 486.344C2857.15 486.344 2856.59 486.125 2856.15 485.688C2855.72 485.251 2855.5 484.712 2855.5 484.072C2855.5 483.432 2855.72 482.899 2856.15 482.472C2856.59 482.045 2857.15 481.832 2857.83 481.832ZM2873.87 492.12C2874.46 491.352 2875.14 490.749 2875.92 490.312C2876.71 489.875 2877.57 489.656 2878.51 489.656C2879.99 489.656 2881.19 490.024 2882.11 490.76C2883.04 491.485 2883.71 492.515 2884.14 493.848C2884.58 495.171 2884.8 496.728 2884.8 498.52C2884.8 500.237 2884.54 501.768 2884.03 503.112C2883.52 504.456 2882.76 505.512 2881.76 506.28C2880.77 507.048 2879.54 507.432 2878.08 507.432C2876.19 507.432 2874.71 506.733 2873.63 505.336L2873.44 507H2870.29V483.32L2873.87 482.92V492.12ZM2877.18 504.696C2878.4 504.696 2879.34 504.2 2880 503.208C2880.67 502.216 2881.01 500.659 2881.01 498.536C2881.01 497.096 2880.87 495.928 2880.61 495.032C2880.34 494.125 2879.94 493.464 2879.42 493.048C2878.91 492.632 2878.28 492.424 2877.53 492.424C2876.73 492.424 2876.03 492.664 2875.42 493.144C2874.81 493.624 2874.3 494.189 2873.87 494.84V502.744C2874.26 503.352 2874.74 503.832 2875.29 504.184C2875.86 504.525 2876.49 504.696 2877.18 504.696ZM2889.63 507V504.44H2892.11V492.648H2889.63V490.104H2894.85L2895.51 494.024C2896.13 492.605 2896.91 491.528 2897.84 490.792C2898.78 490.045 2899.99 489.672 2901.46 489.672C2901.96 489.672 2902.41 489.715 2902.8 489.8C2903.21 489.875 2903.61 489.976 2904 490.104L2902.93 493.176C2902.59 493.08 2902.27 493.011 2901.97 492.968C2901.67 492.915 2901.34 492.888 2900.98 492.888C2899.75 492.888 2898.69 493.347 2897.79 494.264C2896.91 495.181 2896.21 496.483 2895.7 498.168V504.44H2899.11V507H2889.63ZM2900.83 496.328V492.168L2901.28 490.104H2904L2903.39 496.328H2900.83ZM2921.57 502.856C2921.57 503.517 2921.67 504.003 2921.88 504.312C2922.08 504.611 2922.4 504.835 2922.85 504.984L2922.05 507.416C2921.22 507.32 2920.51 507.091 2919.91 506.728C2919.31 506.365 2918.86 505.816 2918.55 505.08C2917.93 505.859 2917.15 506.445 2916.2 506.84C2915.25 507.235 2914.23 507.432 2913.16 507.432C2911.45 507.432 2910.1 506.952 2909.09 505.992C2908.1 505.021 2907.6 503.752 2907.6 502.184C2907.6 500.403 2908.3 499.032 2909.68 498.072C2911.07 497.112 2913.06 496.632 2915.64 496.632H2918.05V495.528C2918.05 494.44 2917.72 493.656 2917.06 493.176C2916.41 492.696 2915.49 492.456 2914.29 492.456C2913.74 492.456 2913.07 492.531 2912.28 492.68C2911.49 492.819 2910.66 493.037 2909.8 493.336L2908.92 490.808C2909.97 490.413 2911.01 490.125 2912.02 489.944C2913.03 489.752 2913.97 489.656 2914.84 489.656C2917.1 489.656 2918.78 490.157 2919.89 491.16C2921.01 492.163 2921.57 493.549 2921.57 495.32V502.856ZM2914.24 504.792C2914.97 504.792 2915.68 504.6 2916.37 504.216C2917.07 503.832 2917.63 503.293 2918.05 502.6V498.872H2916.07C2914.38 498.872 2913.18 499.155 2912.45 499.72C2911.73 500.275 2911.36 501.043 2911.36 502.024C2911.36 502.92 2911.6 503.608 2912.08 504.088C2912.58 504.557 2913.3 504.792 2914.24 504.792ZM2928.01 507V504.44H2930.49V492.648H2928.01V490.104H2933.22L2933.88 494.024C2934.51 492.605 2935.29 491.528 2936.22 490.792C2937.15 490.045 2938.36 489.672 2939.83 489.672C2940.33 489.672 2940.78 489.715 2941.18 489.8C2941.58 489.875 2941.98 489.976 2942.38 490.104L2941.3 493.176C2940.96 493.08 2940.64 493.011 2940.34 492.968C2940.05 492.915 2939.71 492.888 2939.35 492.888C2938.13 492.888 2937.06 493.347 2936.17 494.264C2935.28 495.181 2934.58 496.483 2934.07 498.168V504.44H2937.48V507H2928.01ZM2939.21 496.328V492.168L2939.66 490.104H2942.38L2941.77 496.328H2939.21ZM2961.82 490.104L2956 507.064C2955.56 508.344 2955 509.469 2954.32 510.44C2953.63 511.421 2952.76 512.211 2951.69 512.808C2950.62 513.405 2949.3 513.773 2947.72 513.912L2947.26 511.224C2948.4 511.043 2949.31 510.776 2949.98 510.424C2950.66 510.083 2951.2 509.629 2951.6 509.064C2952 508.499 2952.36 507.811 2952.67 507H2951.45L2945.76 490.104H2949.56L2953.82 504.504L2958.14 490.104H2961.82Z" fill="white"/>
<path d="M2369.59 370.682C2369.23 367.015 2367.67 364.167 2364.91 362.136C2362.15 360.106 2358.41 359.091 2353.68 359.091C2350.47 359.091 2347.76 359.545 2345.55 360.455C2343.33 361.333 2341.64 362.561 2340.45 364.136C2339.3 365.712 2338.73 367.5 2338.73 369.5C2338.67 371.167 2339.02 372.621 2339.77 373.864C2340.56 375.106 2341.64 376.182 2343 377.091C2344.36 377.97 2345.94 378.742 2347.73 379.409C2349.52 380.045 2351.42 380.591 2353.45 381.045L2361.82 383.045C2365.88 383.955 2369.61 385.167 2373 386.682C2376.39 388.197 2379.33 390.061 2381.82 392.273C2384.3 394.485 2386.23 397.091 2387.59 400.091C2388.98 403.091 2389.7 406.53 2389.73 410.409C2389.7 416.106 2388.24 421.045 2385.36 425.227C2382.52 429.379 2378.39 432.606 2373 434.909C2367.64 437.182 2361.17 438.318 2353.59 438.318C2346.08 438.318 2339.53 437.167 2333.95 434.864C2328.41 432.561 2324.08 429.152 2320.95 424.636C2317.86 420.091 2316.24 414.47 2316.09 407.773H2335.14C2335.35 410.894 2336.24 413.5 2337.82 415.591C2339.42 417.652 2341.56 419.212 2344.23 420.273C2346.92 421.303 2349.97 421.818 2353.36 421.818C2356.7 421.818 2359.59 421.333 2362.05 420.364C2364.53 419.394 2366.45 418.045 2367.82 416.318C2369.18 414.591 2369.86 412.606 2369.86 410.364C2369.86 408.273 2369.24 406.515 2368 405.091C2366.79 403.667 2365 402.455 2362.64 401.455C2360.3 400.455 2357.44 399.545 2354.05 398.727L2343.91 396.182C2336.06 394.273 2329.86 391.288 2325.32 387.227C2320.77 383.167 2318.52 377.697 2318.55 370.818C2318.52 365.182 2320.02 360.258 2323.05 356.045C2326.11 351.833 2330.3 348.545 2335.64 346.182C2340.97 343.818 2347.03 342.636 2353.82 342.636C2360.73 342.636 2366.76 343.818 2371.91 346.182C2377.09 348.545 2381.12 351.833 2384 356.045C2386.88 360.258 2388.36 365.136 2388.45 370.682H2369.59ZM2422.51 438.318C2418.06 438.318 2414.09 437.545 2410.6 436C2407.12 434.424 2404.36 432.106 2402.33 429.045C2400.33 425.955 2399.33 422.106 2399.33 417.5C2399.33 413.621 2400.04 410.364 2401.47 407.727C2402.89 405.091 2404.83 402.97 2407.28 401.364C2409.74 399.758 2412.53 398.545 2415.65 397.727C2418.8 396.909 2422.1 396.333 2425.56 396C2429.62 395.576 2432.89 395.182 2435.38 394.818C2437.86 394.424 2439.66 393.848 2440.78 393.091C2441.91 392.333 2442.47 391.212 2442.47 389.727V389.455C2442.47 386.576 2441.56 384.348 2439.74 382.773C2437.95 381.197 2435.41 380.409 2432.1 380.409C2428.62 380.409 2425.84 381.182 2423.78 382.727C2421.72 384.242 2420.36 386.152 2419.69 388.455L2401.78 387C2402.69 382.758 2404.48 379.091 2407.15 376C2409.81 372.879 2413.25 370.485 2417.47 368.818C2421.71 367.121 2426.62 366.273 2432.19 366.273C2436.07 366.273 2439.78 366.727 2443.33 367.636C2446.91 368.545 2450.07 369.955 2452.83 371.864C2455.62 373.773 2457.81 376.227 2459.42 379.227C2461.03 382.197 2461.83 385.758 2461.83 389.909V437H2443.47V427.318H2442.92C2441.8 429.5 2440.3 431.424 2438.42 433.091C2436.54 434.727 2434.28 436.015 2431.65 436.955C2429.01 437.864 2425.97 438.318 2422.51 438.318ZM2428.06 424.955C2430.91 424.955 2433.42 424.394 2435.6 423.273C2437.78 422.121 2439.5 420.576 2440.74 418.636C2441.98 416.697 2442.6 414.5 2442.6 412.045V404.636C2442 405.03 2441.16 405.394 2440.1 405.727C2439.07 406.03 2437.91 406.318 2436.6 406.591C2435.3 406.833 2434 407.061 2432.69 407.273C2431.39 407.455 2430.21 407.621 2429.15 407.773C2426.88 408.106 2424.89 408.636 2423.19 409.364C2421.5 410.091 2420.18 411.076 2419.24 412.318C2418.3 413.53 2417.83 415.045 2417.83 416.864C2417.83 419.5 2418.78 421.515 2420.69 422.909C2422.63 424.273 2425.09 424.955 2428.06 424.955ZM2513.99 367.182V381.727H2471.94V367.182H2513.99ZM2481.49 350.455H2500.85V415.545C2500.85 417.333 2501.13 418.727 2501.67 419.727C2502.22 420.697 2502.97 421.379 2503.94 421.773C2504.94 422.167 2506.09 422.364 2507.4 422.364C2508.31 422.364 2509.22 422.288 2510.12 422.136C2511.03 421.955 2511.73 421.818 2512.22 421.727L2515.26 436.136C2514.29 436.439 2512.93 436.788 2511.17 437.182C2509.41 437.606 2507.28 437.864 2504.76 437.955C2500.09 438.136 2496 437.515 2492.49 436.091C2489 434.667 2486.29 432.455 2484.35 429.455C2482.41 426.455 2481.46 422.667 2481.49 418.091V350.455ZM2557.67 438.364C2550.49 438.364 2544.31 436.909 2539.12 434C2533.97 431.061 2530 426.909 2527.22 421.545C2524.43 416.152 2523.03 409.773 2523.03 402.409C2523.03 395.227 2524.43 388.924 2527.22 383.5C2530 378.076 2533.93 373.848 2538.99 370.818C2544.08 367.788 2550.05 366.273 2556.9 366.273C2561.5 366.273 2565.79 367.015 2569.76 368.5C2573.76 369.955 2577.25 372.152 2580.22 375.091C2583.22 378.03 2585.55 381.727 2587.22 386.182C2588.88 390.606 2589.72 395.788 2589.72 401.727V407.045H2530.76V395.045H2571.49C2571.49 392.258 2570.88 389.788 2569.67 387.636C2568.46 385.485 2566.78 383.803 2564.62 382.591C2562.5 381.348 2560.03 380.727 2557.22 380.727C2554.28 380.727 2551.67 381.409 2549.4 382.773C2547.16 384.106 2545.4 385.909 2544.12 388.182C2542.85 390.424 2542.2 392.924 2542.17 395.682V407.091C2542.17 410.545 2542.81 413.53 2544.08 416.045C2545.38 418.561 2547.22 420.5 2549.58 421.864C2551.94 423.227 2554.75 423.909 2557.99 423.909C2560.14 423.909 2562.11 423.606 2563.9 423C2565.69 422.394 2567.22 421.485 2568.49 420.273C2569.76 419.061 2570.73 417.576 2571.4 415.818L2589.31 417C2588.4 421.303 2586.53 425.061 2583.72 428.273C2580.93 431.455 2577.32 433.939 2572.9 435.727C2568.5 437.485 2563.43 438.364 2557.67 438.364ZM2621.72 343.909V437H2602.35V343.909H2621.72ZM2656.59 343.909V437H2637.23V343.909H2656.59ZM2672.1 437V367.182H2691.47V437H2672.1ZM2681.83 358.182C2678.95 358.182 2676.48 357.227 2674.42 355.318C2672.39 353.379 2671.38 351.061 2671.38 348.364C2671.38 345.697 2672.39 343.409 2674.42 341.5C2676.48 339.561 2678.95 338.591 2681.83 338.591C2684.71 338.591 2687.16 339.561 2689.19 341.5C2691.25 343.409 2692.28 345.697 2692.28 348.364C2692.28 351.061 2691.25 353.379 2689.19 355.318C2687.16 357.227 2684.71 358.182 2681.83 358.182ZM2744.11 367.182V381.727H2702.07V367.182H2744.11ZM2711.61 350.455H2730.98V415.545C2730.98 417.333 2731.25 418.727 2731.8 419.727C2732.34 420.697 2733.1 421.379 2734.07 421.773C2735.07 422.167 2736.22 422.364 2737.52 422.364C2738.43 422.364 2739.34 422.288 2740.25 422.136C2741.16 421.955 2741.86 421.818 2742.34 421.727L2745.39 436.136C2744.42 436.439 2743.05 436.788 2741.3 437.182C2739.54 437.606 2737.4 437.864 2734.89 437.955C2730.22 438.136 2726.13 437.515 2722.61 436.091C2719.13 434.667 2716.42 432.455 2714.48 429.455C2712.54 426.455 2711.58 422.667 2711.61 418.091V350.455ZM2787.8 438.364C2780.61 438.364 2774.43 436.909 2769.25 434C2764.1 431.061 2760.13 426.909 2757.34 421.545C2754.55 416.152 2753.16 409.773 2753.16 402.409C2753.16 395.227 2754.55 388.924 2757.34 383.5C2760.13 378.076 2764.05 373.848 2769.11 370.818C2774.2 367.788 2780.17 366.273 2787.02 366.273C2791.63 366.273 2795.92 367.015 2799.89 368.5C2803.89 369.955 2807.37 372.152 2810.34 375.091C2813.34 378.03 2815.67 381.727 2817.34 386.182C2819.01 390.606 2819.84 395.788 2819.84 401.727V407.045H2760.89V395.045H2801.61C2801.61 392.258 2801.01 389.788 2799.8 387.636C2798.58 385.485 2796.9 383.803 2794.75 382.591C2792.63 381.348 2790.16 380.727 2787.34 380.727C2784.4 380.727 2781.8 381.409 2779.52 382.773C2777.28 384.106 2775.52 385.909 2774.25 388.182C2772.98 390.424 2772.33 392.924 2772.3 395.682V407.091C2772.3 410.545 2772.93 413.53 2774.2 416.045C2775.51 418.561 2777.34 420.5 2779.7 421.864C2782.07 423.227 2784.87 423.909 2788.11 423.909C2790.27 423.909 2792.23 423.606 2794.02 423C2795.81 422.394 2797.34 421.485 2798.61 420.273C2799.89 419.061 2800.86 417.576 2801.52 415.818L2819.43 417C2818.52 421.303 2816.66 425.061 2813.84 428.273C2811.05 431.455 2807.45 433.939 2803.02 435.727C2798.63 437.485 2793.55 438.364 2787.8 438.364Z" fill="white"/>
</g>
<defs>
<clipPath id="clip0_2_4">
<rect width="4320" height="810" fill="white" transform="translate(-1 -1)"/>
</clipPath>
</defs>
</svg>
