<svg width="100" height="100" viewBox="0 0 100 100" fill="none" xmlns="http://www.w3.org/2000/svg">
<g filter="url(#filter0_bd_35_189)">
<rect x="10" width="80" height="80" rx="11" fill="url(#paint0_radial_35_189)" style="mix-blend-mode:hard-light" shape-rendering="crispEdges"/>
<rect x="10.5" y="0.5" width="79" height="79" rx="10.5" stroke="url(#paint1_linear_35_189)" stroke-opacity="0.2" shape-rendering="crispEdges"/>
</g>
<g clip-path="url(#clip0_35_189)">
<path d="M50 10.8333C33.9 10.8333 20.8333 23.9 20.8333 40C20.8333 56.1 33.9 69.1666 50 69.1666C66.1 69.1666 79.1667 56.1 79.1667 40C79.1667 23.9 66.1 10.8333 50 10.8333ZM50 19.5833C54.8417 19.5833 58.75 23.4916 58.75 28.3333C58.75 33.175 54.8417 37.0833 50 37.0833C45.1583 37.0833 41.25 33.175 41.25 28.3333C41.25 23.4916 45.1583 19.5833 50 19.5833ZM50 61C42.7083 61 36.2625 57.2666 32.5 51.6083C32.5875 45.8041 44.1667 42.625 50 42.625C55.8042 42.625 67.4125 45.8041 67.5 51.6083C63.7375 57.2666 57.2917 61 50 61Z" fill="url(#paint2_linear_35_189)" fill-opacity="0.71"/>
</g>
<defs>
<filter id="filter0_bd_35_189" x="-10" y="-20" width="120" height="120" filterUnits="userSpaceOnUse" color-interpolation-filters="sRGB">
<feFlood flood-opacity="0" result="BackgroundImageFix"/>
<feGaussianBlur in="BackgroundImageFix" stdDeviation="10"/>
<feComposite in2="SourceAlpha" operator="in" result="effect1_backgroundBlur_35_189"/>
<feColorMatrix in="SourceAlpha" type="matrix" values="0 0 0 0 0 0 0 0 0 0 0 0 0 0 0 0 0 0 127 0" result="hardAlpha"/>
<feOffset dy="10"/>
<feGaussianBlur stdDeviation="5"/>
<feComposite in2="hardAlpha" operator="out"/>
<feColorMatrix type="matrix" values="0 0 0 0 0 0 0 0 0 0 0 0 0 0 0 0 0 0 0.25 0"/>
<feBlend mode="normal" in2="effect1_backgroundBlur_35_189" result="effect2_dropShadow_35_189"/>
<feBlend mode="normal" in="SourceGraphic" in2="effect2_dropShadow_35_189" result="shape"/>
</filter>
<radialGradient id="paint0_radial_35_189" cx="0" cy="0" r="1" gradientUnits="userSpaceOnUse" gradientTransform="translate(11.9396 25.0001) rotate(81.2298) scale(432.277 2098.42)">
<stop stop-color="#FCFCFC" stop-opacity="0.49"/>
<stop offset="1" stop-color="#C4C4C4" stop-opacity="0.09"/>
</radialGradient>
<linearGradient id="paint1_linear_35_189" x1="10.3611" y1="4.29756" x2="90.5045" y2="4.83545" gradientUnits="userSpaceOnUse">
<stop stop-color="#B7B7B7"/>
<stop offset="1" stop-opacity="0"/>
</linearGradient>
<linearGradient id="paint2_linear_35_189" x1="50" y1="10.8333" x2="50" y2="69.1666" gradientUnits="userSpaceOnUse">
<stop/>
<stop offset="1" stop-opacity="0.42"/>
</linearGradient>
<clipPath id="clip0_35_189">
<rect width="70" height="70" fill="white" transform="translate(15 5)"/>
</clipPath>
</defs>
</svg>
