<svg width="65" height="60" viewBox="0 0 65 60" fill="none" xmlns="http://www.w3.org/2000/svg">
<g clip-path="url(#clip0_68_621)" filter="url(#filter0_d_68_621)">
<g filter="url(#filter1_d_68_621)">
<path d="M42.0264 35H39.903L39.1504 34.325C41.7845 31.475 43.3703 27.775 43.3703 23.75C43.3703 14.775 35.5487 7.5 25.8993 7.5C16.25 7.5 8.42838 14.775 8.42838 23.75C8.42838 32.725 16.25 40 25.8993 40C30.2267 40 34.2047 38.525 37.2689 36.075L37.9946 36.775V38.75L51.4338 51.225L55.4387 47.5L42.0264 35ZM25.8993 35C19.2066 35 13.8041 29.975 13.8041 23.75C13.8041 17.525 19.2066 12.5 25.8993 12.5C32.592 12.5 37.9946 17.525 37.9946 23.75C37.9946 29.975 32.592 35 25.8993 35Z" fill="black"/>
</g>
</g>
<defs>
<filter id="filter0_d_68_621" x="-3.63513" y="0" width="72.5081" height="68" filterUnits="userSpaceOnUse" color-interpolation-filters="sRGB">
<feFlood flood-opacity="0" result="BackgroundImageFix"/>
<feColorMatrix in="SourceAlpha" type="matrix" values="0 0 0 0 0 0 0 0 0 0 0 0 0 0 0 0 0 0 127 0" result="hardAlpha"/>
<feOffset dy="4"/>
<feGaussianBlur stdDeviation="2"/>
<feComposite in2="hardAlpha" operator="out"/>
<feColorMatrix type="matrix" values="0 0 0 0 0 0 0 0 0 0 0 0 0 0 0 0 0 0 0.25 0"/>
<feBlend mode="normal" in2="BackgroundImageFix" result="effect1_dropShadow_68_621"/>
<feBlend mode="normal" in="SourceGraphic" in2="effect1_dropShadow_68_621" result="shape"/>
</filter>
<filter id="filter1_d_68_621" x="4.42838" y="7.5" width="55.0103" height="51.725" filterUnits="userSpaceOnUse" color-interpolation-filters="sRGB">
<feFlood flood-opacity="0" result="BackgroundImageFix"/>
<feColorMatrix in="SourceAlpha" type="matrix" values="0 0 0 0 0 0 0 0 0 0 0 0 0 0 0 0 0 0 127 0" result="hardAlpha"/>
<feOffset dy="4"/>
<feGaussianBlur stdDeviation="2"/>
<feComposite in2="hardAlpha" operator="out"/>
<feColorMatrix type="matrix" values="0 0 0 0 0 0 0 0 0 0 0 0 0 0 0 0 0 0 0.25 0"/>
<feBlend mode="normal" in2="BackgroundImageFix" result="effect1_dropShadow_68_621"/>
<feBlend mode="normal" in="SourceGraphic" in2="effect1_dropShadow_68_621" result="shape"/>
</filter>
<clipPath id="clip0_68_621">
<rect width="64.5081" height="60" fill="white" transform="translate(0.364868)"/>
</clipPath>
</defs>
</svg>
