<svg width="12" height="20" viewBox="0 0 12 20" fill="none" xmlns="http://www.w3.org/2000/svg">
<path d="M8.47499 10L1.12499 2.65C0.874988 2.4 0.754155 2.10417 0.762488 1.7625C0.770822 1.42083 0.899988 1.125 1.14999 0.875C1.39999 0.625 1.69582 0.5 2.03749 0.5C2.37915 0.5 2.67499 0.625 2.92499 0.875L10.6 8.575C10.8 8.775 10.95 9 11.05 9.25C11.15 9.5 11.2 9.75 11.2 10C11.2 10.25 11.15 10.5 11.05 10.75C10.95 11 10.8 11.225 10.6 11.425L2.89999 19.125C2.64999 19.375 2.35832 19.4958 2.02499 19.4875C1.69165 19.4792 1.39999 19.35 1.14999 19.1C0.899988 18.85 0.774988 18.5542 0.774988 18.2125C0.774988 17.8708 0.899988 17.575 1.14999 17.325L8.47499 10Z" fill="#1C1B1F"/>
</svg>
